<?xml version="1.0" encoding="utf-8"?>
<!-- Generator: Adobe Illustrator 22.1.0, SVG Export Plug-In . SVG Version: 6.00 Build 0)  -->
<svg version="1.1" id="Capa_1" xmlns="http://www.w3.org/2000/svg" xmlns:xlink="http://www.w3.org/1999/xlink" x="0px" y="0px"
	 viewBox="0 0 153 193.3" style="enable-background:new 0 0 153 193.3;" xml:space="preserve">
<style type="text/css">
	.st0{fill:url(#SVGID_1_);}
</style>
<g>
	<g>
		
			<linearGradient id="SVGID_1_" gradientUnits="userSpaceOnUse" x1="0.3021" y1="119.3812" x2="152.6639" y2="119.3812" gradientTransform="matrix(1 0 0 -1 0 202)">
			<stop  offset="0.1063" style="stop-color:#57C0D3"/>
			<stop  offset="1" style="stop-color:#1E9BD1"/>
		</linearGradient>
		<polygon class="st0" points="152.7,158.8 0.3,158.8 0.3,6.4 40.2,6.4 40.2,19.4 13.3,19.4 13.3,145.8 139.7,145.8 139.7,19.4 
			112.6,19.4 112.6,6.4 152.7,6.4 		"/>
	</g>
	<g>
		<g>
			<path d="M0,177.7h2v12.6h7.8v1.8H0V177.7z"/>
			<path d="M14.3,177.7h2v14.4h-2V177.7z"/>
			<path d="M24.9,179.5v5h7.3v1.8h-7.3v5.8h-2v-14.4H33v1.8h-8.2V179.5z"/>
			<path d="M48.4,190.3v1.8H38.1v-14.4h10.2v1.8h-8.1v4.4h7.3v1.7h-7.3v4.6H48.4z"/>
			<path d="M73.2,182.8c0,3.1-2.2,5-6,5h-3.5v4.3h-2v-14.4h5.6C70.9,177.7,73.2,179.6,73.2,182.8z M71.1,182.8c0-2-1.4-3.2-4-3.2
				h-3.5v6.4h3.5C69.8,186,71.1,184.8,71.1,182.8z"/>
			<path d="M78.3,177.7h2v12.6h7.8v1.8h-9.9v-14.4H78.3z"/>
			<path d="M101.9,188.5h-7.7l-1.6,3.6h-2l6.5-14.4h2l6.5,14.4h-2.1L101.9,188.5z M101.2,186.9l-3.1-7l-3.1,7H101.2z"/>
			<path d="M108.6,185c0-4.2,3.2-7.4,7.7-7.4c2.2,0,4.1,0.8,5.4,2.2l-1.3,1.3c-1.1-1.2-2.4-1.7-4-1.7c-3.2,0-5.6,2.3-5.6,5.5
				s2.4,5.5,5.6,5.5c1.6,0,2.9-0.5,4-1.7l1.3,1.3c-1.3,1.5-3.2,2.2-5.4,2.2C111.8,192.2,108.6,189.2,108.6,185z"/>
			<path d="M137.2,190.3v1.8h-10.5v-14.4h10.2v1.8h-8.1v4.4h7.3v1.7h-7.3v4.6H137.2z"/>
			<path d="M141.3,190.5l0.8-1.6c1.1,1,2.9,1.7,4.7,1.7c2.5,0,3.5-1,3.5-2.2c0-3.5-8.7-1.3-8.7-6.6c0-2.2,1.7-4.1,5.5-4.1
				c1.7,0,3.4,0.4,4.6,1.3l-0.7,1.6c-1.2-0.8-2.6-1.2-3.9-1.2c-2.4,0-3.5,1-3.5,2.3c0,3.5,8.7,1.3,8.7,6.5c0,2.2-1.8,4.1-5.5,4.1
				C144.6,192.2,142.5,191.5,141.3,190.5z"/>
		</g>
	</g>
	<path d="M57.2,99.4v14.1H37.7V47.3c0-1.9,0.9-2.8,2.7-2.8h56.7c6.4,0,11.1,1.4,13.9,4.3c2.8,2.9,4.2,6.9,4.2,12.2v6
		c0,2.8-0.6,5-1.7,6.7c-1.1,1.7-2.4,3-3.9,4c2,1,3.7,2.5,5,4.4c1.3,1.9,2,4.4,2,7.3v6c0,5.8-1.4,10.3-4.1,13.3
		c-2.7,3-7.5,4.5-14.2,4.5h-35l-5.4-14.1h-0.6V99.4z M58.8,59.8c-1.1,0-1.6,0.5-1.6,1.6v11.7h32.7c2.1,0,3.6-0.4,4.5-1.2
		c0.9-0.8,1.3-2.2,1.3-4.2v-2.1c0-2.1-0.4-3.5-1.3-4.4c-0.9-0.8-2.4-1.3-4.5-1.3C89.9,59.8,58.8,59.8,58.8,59.8z M57.2,84.3v13h33.9
		c1.7,0,2.9-0.4,3.7-1.2c0.8-0.8,1.2-2.2,1.2-4.2v-2c0-2-0.4-3.4-1.1-4.2c-0.7-0.8-2-1.2-3.8-1.2H57.2V84.3z"/>
	<g>
		<path d="M54.9,1h4.8v10.1c0,1,0.2,1.6,0.6,2c0.4,0.4,1,0.6,1.9,0.6h6.4c0.9,0,1.6-0.2,2-0.6c0.4-0.4,0.6-1.1,0.6-2.1V1h4.8v10.3
			c0,1.1-0.1,2-0.4,2.8c-0.2,0.8-0.6,1.5-1.2,2.1c-0.5,0.6-1.3,1-2.1,1.3c-0.9,0.3-2,0.5-3.2,0.5h-7.4c-1.3,0-2.3-0.1-3.2-0.5
			c-0.9-0.3-1.6-0.7-2.1-1.3c-0.5-0.6-0.9-1.3-1.2-2.1c-0.2-0.8-0.4-1.8-0.4-2.8L54.9,1L54.9,1z"/>
		<path d="M82.3,10.6h-0.2v7.6h-4.8V1.7c0-0.5,0.2-0.7,0.7-0.7h13.3c1.2,0,2.1,0.1,2.9,0.4c0.8,0.3,1.5,0.7,2,1.2s0.9,1.2,1.1,1.9
			s0.3,1.6,0.3,2.5v1.4c0,1.9-0.5,3.4-1.4,4.4s-2.5,1.5-4.7,1.5h-7.8L82.3,10.6z M82.4,5.2c-0.2,0-0.3,0.1-0.3,0.3v4.5h8.5
			c0.8,0,1.3-0.2,1.6-0.5c0.3-0.3,0.5-0.8,0.5-1.5V7.2c0-0.8-0.2-1.3-0.5-1.6s-0.9-0.4-1.6-0.4H82.4z"/>
	</g>
</g>
</svg>
