<svg xmlns="http://www.w3.org/2000/svg" 
   xmlns:xlink="http://www.w3.org/1999/xlink" x="0px" y="0px" viewBox="0 0 200 200" style="enable-background:new 0 0 200 200;" xml:space="preserve">
   <g>
      <g>

         <linearGradient id="SVGID_1_" gradientUnits="userSpaceOnUse" x1="25.3" y1="113.95" x2="176.6" y2="113.95" gradientTransform="matrix(1 0 0 -1 0 200)">
            <stop offset="0.1063" style="stop-color:#57C0D3"/>
            <stop offset="1" style="stop-color:#1E9BD1"/>
         </linearGradient>
         <polygon style="fill:url(#SVGID_1_);" points="176.6,161.7 25.3,161.7 25.3,10.4 64.9,10.4 64.9,23.3 38.2,23.3 38.2,148.8 
			163.7,148.8 163.7,23.3 136.8,23.3 136.8,10.4 176.6,10.4 		"/>
      </g>
      <g>
         <g>
            <path style="fill:#FFFFFF;" d="M25,180.5h2V193h7.7v1.8H25V180.5z"/>
            <path style="fill:#FFFFFF;" d="M39.2,180.5h2v14.3h-2V180.5z"/>
            <path style="fill:#FFFFFF;" d="M49.7,182.3v5h7.2v1.8h-7.2v5.8h-2v-14.3h10.1v1.8h-8.1V182.3z"/>
            <path style="fill:#FFFFFF;" d="M73.1,193v1.8H62.8v-14.3h10.1v1.8h-8v4.4h7.2v1.7h-7.2v4.6H73.1z"/>
            <path style="fill:#FFFFFF;" d="M97.7,185.5c0,3.1-2.2,5-6,5h-3.5v4.3h-2v-14.3h5.6C95.4,180.5,97.7,182.4,97.7,185.5z
				 M95.6,185.5c0-2-1.4-3.2-4-3.2h-3.5v6.4h3.5C94.3,188.7,95.6,187.5,95.6,185.5z"/>
            <path style="fill:#FFFFFF;" d="M102.8,180.5h2V193h7.7v1.8h-9.8v-14.3H102.8z"/>
            <path style="fill:#FFFFFF;" d="M126.2,191.2h-7.6l-1.6,3.6h-2l6.5-14.3h2l6.5,14.3h-2.1L126.2,191.2z M125.5,189.6l-3.1-7l-3.1,7
				H125.5z"/>
            <path style="fill:#FFFFFF;" d="M132.8,187.7c0-4.2,3.2-7.3,7.6-7.3c2.2,0,4.1,0.8,5.4,2.2l-1.3,1.3c-1.1-1.2-2.4-1.7-4-1.7
				c-3.2,0-5.6,2.3-5.6,5.5s2.4,5.5,5.6,5.5c1.6,0,2.9-0.5,4-1.7l1.3,1.3c-1.3,1.5-3.2,2.2-5.4,2.2
				C136,194.9,132.8,191.9,132.8,187.7z"/>
            <path style="fill:#FFFFFF;" d="M161.2,193v1.8h-10.4v-14.3h10.1v1.8h-8v4.4h7.2v1.7h-7.2v4.6H161.2z"/>
            <path style="fill:#FFFFFF;" d="M165.3,193.2l0.8-1.6c1.1,1,2.9,1.7,4.7,1.7c2.5,0,3.5-1,3.5-2.2c0-3.5-8.6-1.3-8.6-6.6
				c0-2.2,1.7-4.1,5.5-4.1c1.7,0,3.4,0.4,4.6,1.3l-0.7,1.6c-1.2-0.8-2.6-1.2-3.9-1.2c-2.4,0-3.5,1-3.5,2.3c0,3.5,8.6,1.3,8.6,6.5
				c0,2.2-1.8,4.1-5.5,4.1C168.6,194.9,166.5,194.2,165.3,193.2z"/>
         </g>
      </g>
      <path style="fill:#FFFFFF;" d="M81.8,102.7v14H62.4V51c0-1.9,0.9-2.8,2.7-2.8h56.3c6.4,0,11,1.4,13.8,4.3c2.8,2.9,4.2,6.9,4.2,12.1
		v6c0,2.8-0.6,5-1.7,6.7c-1.1,1.7-2.4,3-3.9,4c2,1,3.7,2.5,5,4.4s2,4.4,2,7.2v6c0,5.8-1.4,10.2-4.1,13.2c-2.7,3-7.4,4.5-14.1,4.5
		H87.8l-5.4-14h-0.6V102.7z M83.4,63.4c-1.1,0-1.6,0.5-1.6,1.6v11.6h32.5c2.1,0,3.6-0.4,4.5-1.2c0.9-0.8,1.3-2.2,1.3-4.2v-2.1
		c0-2.1-0.4-3.5-1.3-4.4c-0.9-0.8-2.4-1.3-4.5-1.3C114.3,63.4,83.4,63.4,83.4,63.4z M81.8,87.7v12.9h33.7c1.7,0,2.9-0.4,3.7-1.2
		c0.8-0.8,1.2-2.2,1.2-4.2v-2c0-2-0.4-3.4-1.1-4.2c-0.7-0.8-2-1.2-3.8-1.2H81.8V87.7z"/>
      <g>
         <path style="fill:#FFFFFF;" d="M79.5,5h4.8v10c0,1,0.2,1.6,0.6,2s1,0.6,1.9,0.6h6.4c0.9,0,1.6-0.2,2-0.6s0.6-1.1,0.6-2.1V5h4.8
			v10.2c0,1.1-0.1,2-0.4,2.8c-0.2,0.8-0.6,1.5-1.2,2.1c-0.5,0.6-1.3,1-2.1,1.3c-0.9,0.3-2,0.5-3.2,0.5h-7.3c-1.3,0-2.3-0.1-3.2-0.5
			c-0.9-0.3-1.6-0.7-2.1-1.3c-0.5-0.6-0.9-1.3-1.2-2.1c-0.2-0.8-0.4-1.8-0.4-2.8L79.5,5L79.5,5z"/>
         <path style="fill:#FFFFFF;" d="M106.7,14.5h-0.2V22h-4.8V5.7c0-0.5,0.2-0.7,0.7-0.7h13.2c1.2,0,2.1,0.1,2.9,0.4s1.5,0.7,2,1.2
			s0.9,1.2,1.1,1.9s0.3,1.6,0.3,2.5v1.4c0,1.9-0.5,3.4-1.4,4.4s-2.5,1.5-4.7,1.5h-7.7L106.7,14.5z M106.8,9.2
			c-0.2,0-0.3,0.1-0.3,0.3V14h8.4c0.8,0,1.3-0.2,1.6-0.5c0.3-0.3,0.5-0.8,0.5-1.5v-0.8c0-0.8-0.2-1.3-0.5-1.6s-0.9-0.4-1.6-0.4
			H106.8z"/>
      </g>
   </g>
</svg>
