<svg xmlns="http://www.w3.org/2000/svg" xmlns:xlink="http://www.w3.org/1999/xlink" viewBox="0 0 1193.08 838.64"><defs><style>.cls-1{fill:url(#Degradado_sin_nombre_4);}.cls-2{fill:#1e120d;}.cls-3{fill:#5d5d5d;}.cls-4{fill:url(#Degradado_sin_nombre_4-2);}.cls-5{fill:url(#linear-gradient);}.cls-6{fill:url(#linear-gradient-2);}.cls-7{fill:none;stroke-miterlimit:10;stroke-width:2px;stroke:url(#Degradado_sin_nombre_4-3);}</style><linearGradient id="Degradado_sin_nombre_4" y1="158.98" x2="1192" y2="158.98" gradientUnits="userSpaceOnUse"><stop offset="0.11" stop-color="#57c0d3"/><stop offset="1" stop-color="#1e9bd1"/></linearGradient><linearGradient id="Degradado_sin_nombre_4-2" x1="935.81" y1="104.75" x2="1260" y2="104.75" xlink:href="#Degradado_sin_nombre_4"/><linearGradient id="linear-gradient" x1="-6" y1="338.63" x2="120.28" y2="338.63" xlink:href="#Degradado_sin_nombre_4"/><linearGradient id="linear-gradient-2" x1="0" y1="338.63" x2="142.55" y2="338.63" xlink:href="#Degradado_sin_nombre_4"/><linearGradient id="Degradado_sin_nombre_4-3" x1="959.45" y1="675.06" x2="1193.08" y2="675.06" xlink:href="#Degradado_sin_nombre_4"/></defs><title>background</title><g id="Capa_2" data-name="Capa 2"><g id="Capa_1-2" data-name="Capa 1"><polygon class="cls-1" points="120.63 159.55 120.63 158.99 120.63 158.41 120.23 158.98 120.22 158.99 120.23 158.99 120.63 159.55"/><polygon class="cls-2" points="1024.74 738.03 950.41 838 980.3 838 1051.16 738.03 1024.74 738.03"/><polygon class="cls-2" points="1024.74 738.03 950.41 838 980.3 838 1051.16 738.03 1024.74 738.03"/><polygon class="cls-2" points="950.41 838 1024.74 738.03 56.7 738.03 0 818.03 0 838 950.41 838"/><polygon class="cls-2" points="950.41 838 1024.74 738.03 56.7 738.03 0 818.03 0 838 950.41 838"/><polygon class="cls-3" points="1087.5 209.49 1192 354.19 1192 209.49 1087.5 209.49"/><polygon class="cls-3" points="1087.5 209.49 1192 354.19 1192 209.49 1087.5 209.49"/><polygon class="cls-3" points="1192 566.66 998.9 838 1149.11 838 1192 777.41 1192 566.66"/><polygon class="cls-3" points="1192 566.66 998.9 838 1149.11 838 1192 777.41 1192 566.66"/><polygon class="cls-4" points="892.18 0 1043.48 209.49 1043.48 209.49 1043.49 209.48 1043.49 209.49 1087.5 209.49 1192 209.49 1192 172 1192 0 892.18 0"/><path class="cls-2" d="M120.49,336.65l.14-.2L359.11,0H0V167.25l120.07,169.4ZM120.23,159l.4-.57v1.14l-.4-.56h0Z"/><path class="cls-2" d="M120.49,336.65l.14-.2L359.11,0H0V167.25l120.07,169.4ZM120.23,159l.4-.57v1.14l-.4-.56h0Z"/><polygon class="cls-5" points="120.07 338.34 0 168.94 0 508.32 120.28 338.63 120.07 338.34"/><polygon class="cls-6" points="120.07 338.34 0 168.94 0 508.32 120.28 338.63 120.07 338.34"/><line class="cls-7" x1="1192.27" y1="512.06" x2="960.27" y2="838.06"/></g></g></svg>