<?xml version="1.0" standalone="no"?>
<!DOCTYPE svg PUBLIC "-//W3C//DTD SVG 20010904//EN"
 "http://www.w3.org/TR/2001/REC-SVG-20010904/DTD/svg10.dtd">
<svg version="1.0" xmlns="http://www.w3.org/2000/svg"
 width="250.000000pt" height="250.000000pt" viewBox="0 0 250.000000 250.000000"
 preserveAspectRatio="xMidYMid meet">
<metadata>
Created by potrace 1.11, written by Peter Selinger 2001-2013
</metadata>
<g transform="translate(0.000000,250.000000) scale(0.100000,-0.100000)"
fill="#000000" stroke="none">
<path d="M980 2156 c0 -120 9 -130 128 -131 123 0 134 10 140 130 l5 85 -36 0
-36 0 -3 -77 -3 -78 -65 0 -65 0 -3 78 -3 77 -29 0 -30 0 0 -84z"/>
<path d="M1260 2130 l0 -110 30 0 c29 0 30 2 31 48 0 41 2 44 11 25 10 -20 19
-23 73 -23 85 0 108 19 108 85 0 74 -19 85 -149 85 l-104 0 0 -110z m188 28
l3 -28 -65 0 -66 0 0 30 0 31 63 -3 c59 -3 62 -4 65 -30z"/>
<path d="M767 1683 c-4 -3 -7 -197 -7 -430 l0 -423 125 0 124 0 3 87 3 88 34
-87 34 -88 251 0 c142 0 267 5 288 10 48 14 97 55 115 98 20 48 28 178 13 231
-7 25 -26 59 -45 78 -32 32 -32 32 -12 50 33 30 47 78 47 160 -1 123 -29 179
-105 214 -37 17 -74 19 -451 19 -226 0 -414 -3 -417 -7z m707 -199 c19 -19 22
-114 4 -132 -9 -9 -76 -12 -240 -12 l-228 0 0 80 0 80 224 0 c191 0 227 -2
240 -16z m16 -328 c16 -50 4 -105 -27 -117 -13 -5 -121 -9 -239 -9 l-214 0 0
80 0 80 234 0 234 0 12 -34z"/>
</g>
</svg>
